{
 "cells": [
  {
   "cell_type": "markdown",
   "id": "c13350e5",
   "metadata": {},
   "source": [
    "## From EXR to YUV\n",
    "* .exr images from ftp://svtopencontent.svt.se\n",
    "* 1500 images at 50 fps = 30sec\n",
    "* inside a .yuv raw video with 4k resolution and yuv420p sampling"
   ]
  },
  {
   "cell_type": "code",
   "execution_count": 18,
   "id": "ffa6848b",
   "metadata": {},
   "outputs": [
    {
     "name": "stderr",
     "output_type": "stream",
     "text": [
      "ffmpeg version N-106635-g83e1a1de88 Copyright (c) 2000-2022 the FFmpeg developers\n",
      "  built with gcc 9 (Ubuntu 9.4.0-1ubuntu1~20.04.1)\n",
      "  configuration: --prefix=/home/ubuntu/ffmpeg_build --pkg-config-flags=--static --extra-cflags=-I/home/ubuntu/ffmpeg_build/include --extra-ldflags=-L/home/ubuntu/ffmpeg_build/lib --extra-libs='-lpthread -lm' --ld=g++ --bindir=/home/ubuntu/bin --enable-gpl --enable-gnutls --enable-libaom --enable-libass --enable-libfdk-aac --enable-libfreetype --enable-libmp3lame --enable-libopus --enable-libsvtav1 --enable-libdav1d --enable-libvorbis --enable-libvpx --enable-libx264 --enable-libx265 --enable-libvmaf --enable-version3 --enable-nonfree\n",
      "  libavutil      57. 24.101 / 57. 24.101\n",
      "  libavcodec     59. 26.100 / 59. 26.100\n",
      "  libavformat    59. 22.100 / 59. 22.100\n",
      "  libavdevice    59.  6.100 / 59.  6.100\n",
      "  libavfilter     8. 33.100 /  8. 33.100\n",
      "  libswscale      6.  6.100 /  6.  6.100\n",
      "  libswresample   4.  6.100 /  4.  6.100\n",
      "  libpostproc    56.  5.100 / 56.  5.100\n",
      "Input #0, concat, from 'tests_vids/srcRAW_FullHD/SVT/cuts_full.txt':\n",
      "  Duration: N/A, start: 0.000000, bitrate: N/A\n",
      "  Stream #0:0: Video: rawvideo (I420 / 0x30323449), yuv420p(progressive), 1920x1080, SAR 1:1 DAR 16:9, 50 fps, 50 tbr, 50 tbn\n",
      "Stream mapping:\n",
      "  Stream #0:0 -> #0:0 (rawvideo (native) -> wrapped_avframe (native))\n",
      "Press [q] to stop, [?] for help\n",
      "Output #0, yuv4mpegpipe, to 'tests_vids/srcRAW_FullHD/SVT/mux_fullmix_50.y4m':\n",
      "  Metadata:\n",
      "    encoder         : Lavf59.22.100\n",
      "  Stream #0:0: Video: wrapped_avframe, yuv420p(progressive), 1920x1080 [SAR 1:1 DAR 16:9], q=2-31, 200 kb/s, 50 fps, 50 tbn\n",
      "    Metadata:\n",
      "      encoder         : Lavc59.26.100 wrapped_avframe\n",
      "frame=24012 fps= 46 q=-0.0 Lsize=72936591kB time=00:08:00.24 bitrate=1244162.4kbits/s speed=0.913x    \n",
      "video:11068kB audio:0kB subtitle:0kB other streams:0kB global headers:0kB muxing overhead: 658884.312500%\n"
     ]
    },
    {
     "data": {
      "text/plain": [
       "0"
      ]
     },
     "execution_count": 18,
     "metadata": {},
     "output_type": "execute_result"
    }
   ],
   "source": [
    "import subprocess\n",
    "command = f\"ffmpeg -f concat -safe 0 -i tests_vids/srcRAW_FullHD/SVT/cuts_full.txt \\\n",
    "    -f yuv4mpegpipe tests_vids/srcRAW_FullHD/SVT/mux_fullmix_50.y4m\"\n",
    "subprocess.call(command, shell=True)"
   ]
  },
  {
   "cell_type": "code",
   "execution_count": 2,
   "id": "b26e6664",
   "metadata": {},
   "outputs": [
    {
     "name": "stderr",
     "output_type": "stream",
     "text": [
      "ffmpeg version N-106635-g83e1a1de88 Copyright (c) 2000-2022 the FFmpeg developers\n",
      "  built with gcc 9 (Ubuntu 9.4.0-1ubuntu1~20.04.1)\n",
      "  configuration: --prefix=/home/ubuntu/ffmpeg_build --pkg-config-flags=--static --extra-cflags=-I/home/ubuntu/ffmpeg_build/include --extra-ldflags=-L/home/ubuntu/ffmpeg_build/lib --extra-libs='-lpthread -lm' --ld=g++ --bindir=/home/ubuntu/bin --enable-gpl --enable-gnutls --enable-libaom --enable-libass --enable-libfdk-aac --enable-libfreetype --enable-libmp3lame --enable-libopus --enable-libsvtav1 --enable-libdav1d --enable-libvorbis --enable-libvpx --enable-libx264 --enable-libx265 --enable-libvmaf --enable-version3 --enable-nonfree\n",
      "  libavutil      57. 24.101 / 57. 24.101\n",
      "  libavcodec     59. 26.100 / 59. 26.100\n",
      "  libavformat    59. 22.100 / 59. 22.100\n",
      "  libavdevice    59.  6.100 / 59.  6.100\n",
      "  libavfilter     8. 33.100 /  8. 33.100\n",
      "  libswscale      6.  6.100 /  6.  6.100\n",
      "  libswresample   4.  6.100 /  4.  6.100\n",
      "  libpostproc    56.  5.100 / 56.  5.100\n",
      "Input #0, image2, from 'test_vids/src_waterfall/waterfall_%04d.exr':\n",
      "  Duration: 00:00:30.00, start: 0.000000, bitrate: N/A\n",
      "  Stream #0:0: Video: exr, gbrpf32le, 3840x2160 [SAR 1:1 DAR 16:9], 50 fps, 50 tbr, 50 tbn\n",
      "Stream mapping:\n",
      "  Stream #0:0 -> #0:0 (exr (native) -> rawvideo (native))\n",
      "Press [q] to stop, [?] for help\n",
      "Output #0, rawvideo, to 'test_vids/waterfall.yuv':\n",
      "  Metadata:\n",
      "    encoder         : Lavf59.22.100\n",
      "  Stream #0:0: Video: rawvideo (I420 / 0x30323449), yuv420p(tv, progressive), 3840x2160 [SAR 1:1 DAR 16:9], q=2-31, 4976640 kb/s, 50 fps, 50 tbn\n",
      "    Metadata:\n",
      "      encoder         : Lavc59.26.100 rawvideo\n",
      "frame= 1500 fps=2.8 q=-0.0 Lsize=18225000kB time=00:00:30.00 bitrate=4976640.0kbits/s speed=0.0559x    \n",
      "video:18225000kB audio:0kB subtitle:0kB other streams:0kB global headers:0kB muxing overhead: 0.000000%\n"
     ]
    },
    {
     "data": {
      "text/plain": [
       "0"
      ]
     },
     "execution_count": 2,
     "metadata": {},
     "output_type": "execute_result"
    }
   ],
   "source": [
    "import subprocess\n",
    "c_seq = \"ffmpeg -y -start_number 180000 -framerate 50 -i test_vids/src_waterfall/waterfall_%04d.exr \\\n",
    "        -c:v rawvideo -pix_fmt yuv420p -s 3840x2160 -r 50 test_vids/refs/waterfall.yuv\"\n",
    "subprocess.call(c_seq, shell=True)"
   ]
  },
  {
   "cell_type": "code",
   "execution_count": 19,
   "id": "b5e79933",
   "metadata": {},
   "outputs": [
    {
     "name": "stderr",
     "output_type": "stream",
     "text": [
      "ffmpeg version N-106635-g83e1a1de88 Copyright (c) 2000-2022 the FFmpeg developers\n",
      "  built with gcc 9 (Ubuntu 9.4.0-1ubuntu1~20.04.1)\n",
      "  configuration: --prefix=/home/ubuntu/ffmpeg_build --pkg-config-flags=--static --extra-cflags=-I/home/ubuntu/ffmpeg_build/include --extra-ldflags=-L/home/ubuntu/ffmpeg_build/lib --extra-libs='-lpthread -lm' --ld=g++ --bindir=/home/ubuntu/bin --enable-gpl --enable-gnutls --enable-libaom --enable-libass --enable-libfdk-aac --enable-libfreetype --enable-libmp3lame --enable-libopus --enable-libsvtav1 --enable-libdav1d --enable-libvorbis --enable-libvpx --enable-libx264 --enable-libx265 --enable-libvmaf --enable-version3 --enable-nonfree\n",
      "  libavutil      57. 24.101 / 57. 24.101\n",
      "  libavcodec     59. 26.100 / 59. 26.100\n",
      "  libavformat    59. 22.100 / 59. 22.100\n",
      "  libavdevice    59.  6.100 / 59.  6.100\n",
      "  libavfilter     8. 33.100 /  8. 33.100\n",
      "  libswscale      6.  6.100 /  6.  6.100\n",
      "  libswresample   4.  6.100 /  4.  6.100\n",
      "  libpostproc    56.  5.100 / 56.  5.100\n",
      "Unknown decoder 'libopenjpeg'\n"
     ]
    },
    {
     "data": {
      "text/plain": [
       "1"
      ]
     },
     "execution_count": 19,
     "metadata": {},
     "output_type": "execute_result"
    }
   ],
   "source": [
    "import subprocess\n",
    "c_seq = \"ffmpeg -codec:v libopenjpeg -i tests_vids/srcRAW_4K/MERIDIAN_SHR_C_EN-XX_US-NR_51_LTRT_UHD_ML7_SL4_20160915_OV/MER_SHR_C_EN-XX_US-NR_51_LTRT_UHD_ML7_SL4_20160915_OV_00.mxf \\\n",
    "    tests_vids/srcRAW_4K/meridian.y4m\"\n",
    "subprocess.call(c_seq, shell=True)"
   ]
  },
  {
   "cell_type": "markdown",
   "id": "baa6a520",
   "metadata": {},
   "source": [
    "## From YUV to YUV multires\n",
    "the .yuv reference uncompressed file is downsized to 5 more resolutions"
   ]
  },
  {
   "cell_type": "code",
   "execution_count": null,
   "id": "5e3a4089",
   "metadata": {},
   "outputs": [],
   "source": [
    "import numpy as np\n",
    "import subprocess\n",
    "source = \"smithy\"\n",
    "res_widths = [3840, 2560, 1920, 1280, 1024, 640]\n",
    "res_heights = [2160, 1440, 1080, 720, 576, 360]\n",
    "for i in range(1, res_widths.size):\n",
    "    path = \"test_vids/downsampled/\" + source + \"_\" + str(res_widths[i-1]) + \".yuv\"\n",
    "    out = \"test_vids/downsampled/\" + source + \"_\" + str(res_widths[i]) + \".yuv\"\n",
    "    command = f\"ffmpeg -f rawvideo -video_size {res_widths[i-1]}x{res_heights[i-1]} -r 50 -pixel_format yuv420p \\\n",
    "    -i {path} -f rawvideo -c:v rawvideo -filter:v scale={res_widths[i]}x{res_heights[i]} -pix_fmt yuv420p {out}\"\n",
    "    subprocess.call(command, shell=True)"
   ]
  },
  {
   "cell_type": "markdown",
   "id": "4c767856",
   "metadata": {},
   "source": [
    "## From YUV to H264 AVC"
   ]
  },
  {
   "cell_type": "code",
   "execution_count": 6,
   "id": "1bd6facd",
   "metadata": {},
   "outputs": [
    {
     "name": "stderr",
     "output_type": "stream",
     "text": [
      "ffmpeg version N-106635-g83e1a1de88 Copyright (c) 2000-2022 the FFmpeg developers\n",
      "  built with gcc 9 (Ubuntu 9.4.0-1ubuntu1~20.04.1)\n",
      "  configuration: --prefix=/home/ubuntu/ffmpeg_build --pkg-config-flags=--static --extra-cflags=-I/home/ubuntu/ffmpeg_build/include --extra-ldflags=-L/home/ubuntu/ffmpeg_build/lib --extra-libs='-lpthread -lm' --ld=g++ --bindir=/home/ubuntu/bin --enable-gpl --enable-gnutls --enable-libaom --enable-libass --enable-libfdk-aac --enable-libfreetype --enable-libmp3lame --enable-libopus --enable-libsvtav1 --enable-libdav1d --enable-libvorbis --enable-libvpx --enable-libx264 --enable-libx265 --enable-libvmaf --enable-version3 --enable-nonfree\n",
      "  libavutil      57. 24.101 / 57. 24.101\n",
      "  libavcodec     59. 26.100 / 59. 26.100\n",
      "  libavformat    59. 22.100 / 59. 22.100\n",
      "  libavdevice    59.  6.100 / 59.  6.100\n",
      "  libavfilter     8. 33.100 /  8. 33.100\n",
      "  libswscale      6.  6.100 /  6.  6.100\n",
      "  libswresample   4.  6.100 /  4.  6.100\n",
      "  libpostproc    56.  5.100 / 56.  5.100\n",
      "[rawvideo @ 0x55bb52cfd4c0] Estimating duration from bitrate, this may be inaccurate\n",
      "Input #0, rawvideo, from 'test_vids/refs/waterfall.yuv':\n",
      "  Duration: 00:00:04.00, start: 0.000000, bitrate: 4976640 kb/s\n",
      "  Stream #0:0: Video: rawvideo (I420 / 0x30323449), yuv420p, 3840x2160, 4976640 kb/s, 50 tbr, 50 tbn\n",
      "Stream mapping:\n",
      "  Stream #0:0 -> #0:0 (rawvideo (native) -> h264 (libx264))\n",
      "Press [q] to stop, [?] for help\n",
      "[libx264 @ 0x55bb52d0a180] using cpu capabilities: MMX2 SSE2Fast SSSE3 SSE4.2 AVX FMA3 BMI2 AVX2\n",
      "[libx264 @ 0x55bb52d0a180] profile High, level 5.2\n",
      "[libx264 @ 0x55bb52d0a180] 264 - core 155 r2917 0a84d98 - H.264/MPEG-4 AVC codec - Copyleft 2003-2018 - http://www.videolan.org/x264.html - options: cabac=1 ref=3 deblock=1:0:0 analyse=0x3:0x113 me=hex subme=7 psy=1 psy_rd=1.00:0.00 mixed_ref=1 me_range=16 chroma_me=1 trellis=1 8x8dct=1 cqm=0 deadzone=21,11 fast_pskip=1 chroma_qp_offset=-2 threads=12 lookahead_threads=2 sliced_threads=0 nr=0 decimate=1 interlaced=0 bluray_compat=0 constrained_intra=0 bframes=3 b_pyramid=2 b_adapt=1 b_bias=0 direct=1 weightb=1 open_gop=0 weightp=2 keyint=250 keyint_min=25 scenecut=40 intra_refresh=0 rc_lookahead=40 rc=crf mbtree=1 crf=10.0 qcomp=0.60 qpmin=0 qpmax=69 qpstep=4 ip_ratio=1.40 aq=1:1.00\n",
      "Output #0, mp4, to 'test_vids/encoded/waterfall/waterfallAVC_cf10.mp4':\n",
      "  Metadata:\n",
      "    encoder         : Lavf59.22.100\n",
      "  Stream #0:0: Video: h264 (avc1 / 0x31637661), yuv420p(progressive), 3840x2160, q=2-31, 50 fps, 12800 tbn\n",
      "    Metadata:\n",
      "      encoder         : Lavc59.26.100 libx264\n",
      "    Side data:\n",
      "      cpb: bitrate max/min/avg: 0/0/0 buffer size: 0 vbv_delay: N/A\n",
      "frame=  200 fps=4.4 q=-1.0 Lsize=  191872kB time=00:00:03.94 bitrate=398930.0kbits/s speed=0.0874x     \n",
      "video:191868kB audio:0kB subtitle:0kB other streams:0kB global headers:0kB muxing overhead: 0.002060%\n",
      "[libx264 @ 0x55bb52d0a180] frame I:1     Avg QP:14.60  size:2384544\n",
      "[libx264 @ 0x55bb52d0a180] frame P:50    Avg QP:14.79  size:1292752\n",
      "[libx264 @ 0x55bb52d0a180] frame B:149   Avg QP:18.11  size:868792\n",
      "[libx264 @ 0x55bb52d0a180] consecutive B-frames:  0.5%  0.0%  1.5% 98.0%\n",
      "[libx264 @ 0x55bb52d0a180] mb I  I16..4:  0.2% 64.5% 35.2%\n",
      "[libx264 @ 0x55bb52d0a180] mb P  I16..4:  0.0% 36.5% 16.4%  P16..4: 21.0% 10.4% 14.1%  0.0%  0.0%    skip: 1.6%\n",
      "[libx264 @ 0x55bb52d0a180] mb B  I16..4:  0.0% 14.4% 19.4%  B16..8: 15.8% 12.5%  8.4%  direct: 5.6%  skip:23.9%  L0:29.1% L1:31.4% BI:39.6%\n",
      "[libx264 @ 0x55bb52d0a180] 8x8 transform intra:51.8% inter:53.4%\n",
      "[libx264 @ 0x55bb52d0a180] coded y,uvDC,uvAC intra: 99.9% 92.1% 72.7% inter: 50.6% 34.6% 16.7%\n",
      "[libx264 @ 0x55bb52d0a180] i16 v,h,dc,p:  2%  3%  4% 91%\n",
      "[libx264 @ 0x55bb52d0a180] i8 v,h,dc,ddl,ddr,vr,hd,vl,hu: 25%  9%  8%  5%  9% 14%  7% 12% 10%\n",
      "[libx264 @ 0x55bb52d0a180] i4 v,h,dc,ddl,ddr,vr,hd,vl,hu: 19%  9%  8%  7% 12% 15%  8% 12% 10%\n",
      "[libx264 @ 0x55bb52d0a180] i8c dc,h,v,p: 53% 18% 21%  8%\n",
      "[libx264 @ 0x55bb52d0a180] Weighted P-Frames: Y:0.0% UV:0.0%\n",
      "[libx264 @ 0x55bb52d0a180] ref P L0: 58.6%  8.6% 20.8% 11.9%\n",
      "[libx264 @ 0x55bb52d0a180] ref B L0: 87.2%  9.2%  3.6%\n",
      "[libx264 @ 0x55bb52d0a180] ref B L1: 95.9%  4.1%\n",
      "[libx264 @ 0x55bb52d0a180] kb/s:392944.31\n",
      "ffmpeg version N-106635-g83e1a1de88 Copyright (c) 2000-2022 the FFmpeg developers\n",
      "  built with gcc 9 (Ubuntu 9.4.0-1ubuntu1~20.04.1)\n",
      "  configuration: --prefix=/home/ubuntu/ffmpeg_build --pkg-config-flags=--static --extra-cflags=-I/home/ubuntu/ffmpeg_build/include --extra-ldflags=-L/home/ubuntu/ffmpeg_build/lib --extra-libs='-lpthread -lm' --ld=g++ --bindir=/home/ubuntu/bin --enable-gpl --enable-gnutls --enable-libaom --enable-libass --enable-libfdk-aac --enable-libfreetype --enable-libmp3lame --enable-libopus --enable-libsvtav1 --enable-libdav1d --enable-libvorbis --enable-libvpx --enable-libx264 --enable-libx265 --enable-libvmaf --enable-version3 --enable-nonfree\n",
      "  libavutil      57. 24.101 / 57. 24.101\n",
      "  libavcodec     59. 26.100 / 59. 26.100\n",
      "  libavformat    59. 22.100 / 59. 22.100\n",
      "  libavdevice    59.  6.100 / 59.  6.100\n",
      "  libavfilter     8. 33.100 /  8. 33.100\n",
      "  libswscale      6.  6.100 /  6.  6.100\n",
      "  libswresample   4.  6.100 /  4.  6.100\n",
      "  libpostproc    56.  5.100 / 56.  5.100\n",
      "[rawvideo @ 0x560e59be24c0] Estimating duration from bitrate, this may be inaccurate\n",
      "Input #0, rawvideo, from 'test_vids/refs/waterfall.yuv':\n",
      "  Duration: 00:00:04.00, start: 0.000000, bitrate: 4976640 kb/s\n",
      "  Stream #0:0: Video: rawvideo (I420 / 0x30323449), yuv420p, 3840x2160, 4976640 kb/s, 50 tbr, 50 tbn\n",
      "Stream mapping:\n",
      "  Stream #0:0 -> #0:0 (rawvideo (native) -> h264 (libx264))\n",
      "Press [q] to stop, [?] for help\n",
      "[libx264 @ 0x560e59bef180] using cpu capabilities: MMX2 SSE2Fast SSSE3 SSE4.2 AVX FMA3 BMI2 AVX2\n",
      "[libx264 @ 0x560e59bef180] profile High, level 5.2\n",
      "[libx264 @ 0x560e59bef180] 264 - core 155 r2917 0a84d98 - H.264/MPEG-4 AVC codec - Copyleft 2003-2018 - http://www.videolan.org/x264.html - options: cabac=1 ref=3 deblock=1:0:0 analyse=0x3:0x113 me=hex subme=7 psy=1 psy_rd=1.00:0.00 mixed_ref=1 me_range=16 chroma_me=1 trellis=1 8x8dct=1 cqm=0 deadzone=21,11 fast_pskip=1 chroma_qp_offset=-2 threads=12 lookahead_threads=2 sliced_threads=0 nr=0 decimate=1 interlaced=0 bluray_compat=0 constrained_intra=0 bframes=3 b_pyramid=2 b_adapt=1 b_bias=0 direct=1 weightb=1 open_gop=0 weightp=2 keyint=250 keyint_min=25 scenecut=40 intra_refresh=0 rc_lookahead=40 rc=crf mbtree=1 crf=17.0 qcomp=0.60 qpmin=0 qpmax=69 qpstep=4 ip_ratio=1.40 aq=1:1.00\n",
      "Output #0, mp4, to 'test_vids/encoded/waterfall/waterfallAVC_cf17.mp4':\n",
      "  Metadata:\n",
      "    encoder         : Lavf59.22.100\n",
      "  Stream #0:0: Video: h264 (avc1 / 0x31637661), yuv420p(progressive), 3840x2160, q=2-31, 50 fps, 12800 tbn\n",
      "    Metadata:\n",
      "      encoder         : Lavc59.26.100 libx264\n",
      "    Side data:\n",
      "      cpb: bitrate max/min/avg: 0/0/0 buffer size: 0 vbv_delay: N/A\n",
      "frame=  200 fps=6.1 q=-1.0 Lsize=   90417kB time=00:00:03.94 bitrate=187989.7kbits/s speed=0.121x      \n",
      "video:90413kB audio:0kB subtitle:0kB other streams:0kB global headers:0kB muxing overhead: 0.003958%\n",
      "[libx264 @ 0x560e59bef180] frame I:1     Avg QP:21.60  size:1280292\n",
      "[libx264 @ 0x560e59bef180] frame P:50    Avg QP:21.87  size:582536\n",
      "[libx264 @ 0x560e59bef180] frame B:149   Avg QP:25.18  size:417284\n",
      "[libx264 @ 0x560e59bef180] consecutive B-frames:  0.5%  0.0%  1.5% 98.0%\n",
      "[libx264 @ 0x560e59bef180] mb I  I16..4:  0.2% 77.1% 22.7%\n",
      "[libx264 @ 0x560e59bef180] mb P  I16..4:  0.1% 38.4% 10.5%  P16..4: 15.9% 11.0% 10.7%  0.0%  0.0%    skip:13.4%\n",
      "[libx264 @ 0x560e59bef180] mb B  I16..4:  0.0% 15.0%  8.1%  B16..8: 16.0% 15.0%  7.2%  direct: 5.6%  skip:33.1%  L0:34.9% L1:35.3% BI:29.8%\n",
      "[libx264 @ 0x560e59bef180] 8x8 transform intra:70.5% inter:64.4%\n",
      "[libx264 @ 0x560e59bef180] coded y,uvDC,uvAC intra: 98.3% 58.6% 20.5% inter: 41.7% 17.1% 2.9%\n",
      "[libx264 @ 0x560e59bef180] i16 v,h,dc,p:  7%  3%  1% 90%\n",
      "[libx264 @ 0x560e59bef180] i8 v,h,dc,ddl,ddr,vr,hd,vl,hu: 21%  9%  9%  6% 10% 15%  8% 12% 10%\n",
      "[libx264 @ 0x560e59bef180] i4 v,h,dc,ddl,ddr,vr,hd,vl,hu: 20%  9%  9%  8% 12% 15%  8% 11%  8%\n",
      "[libx264 @ 0x560e59bef180] i8c dc,h,v,p: 61% 17% 19%  3%\n",
      "[libx264 @ 0x560e59bef180] Weighted P-Frames: Y:0.0% UV:0.0%\n",
      "[libx264 @ 0x560e59bef180] ref P L0: 54.7% 12.5% 21.2% 11.7%\n",
      "[libx264 @ 0x560e59bef180] ref B L0: 87.0%  9.1%  3.9%\n",
      "[libx264 @ 0x560e59bef180] ref B L1: 95.9%  4.1%\n",
      "[libx264 @ 0x560e59bef180] kb/s:185164.78\n",
      "ffmpeg version N-106635-g83e1a1de88 Copyright (c) 2000-2022 the FFmpeg developers\n",
      "  built with gcc 9 (Ubuntu 9.4.0-1ubuntu1~20.04.1)\n",
      "  configuration: --prefix=/home/ubuntu/ffmpeg_build --pkg-config-flags=--static --extra-cflags=-I/home/ubuntu/ffmpeg_build/include --extra-ldflags=-L/home/ubuntu/ffmpeg_build/lib --extra-libs='-lpthread -lm' --ld=g++ --bindir=/home/ubuntu/bin --enable-gpl --enable-gnutls --enable-libaom --enable-libass --enable-libfdk-aac --enable-libfreetype --enable-libmp3lame --enable-libopus --enable-libsvtav1 --enable-libdav1d --enable-libvorbis --enable-libvpx --enable-libx264 --enable-libx265 --enable-libvmaf --enable-version3 --enable-nonfree\n",
      "  libavutil      57. 24.101 / 57. 24.101\n",
      "  libavcodec     59. 26.100 / 59. 26.100\n",
      "  libavformat    59. 22.100 / 59. 22.100\n",
      "  libavdevice    59.  6.100 / 59.  6.100\n",
      "  libavfilter     8. 33.100 /  8. 33.100\n",
      "  libswscale      6.  6.100 /  6.  6.100\n",
      "  libswresample   4.  6.100 /  4.  6.100\n",
      "  libpostproc    56.  5.100 / 56.  5.100\n",
      "[rawvideo @ 0x56020d52c4c0] Estimating duration from bitrate, this may be inaccurate\n",
      "Input #0, rawvideo, from 'test_vids/refs/waterfall.yuv':\n",
      "  Duration: 00:00:04.00, start: 0.000000, bitrate: 4976640 kb/s\n",
      "  Stream #0:0: Video: rawvideo (I420 / 0x30323449), yuv420p, 3840x2160, 4976640 kb/s, 50 tbr, 50 tbn\n",
      "Stream mapping:\n",
      "  Stream #0:0 -> #0:0 (rawvideo (native) -> h264 (libx264))\n",
      "Press [q] to stop, [?] for help\n",
      "[libx264 @ 0x56020d539180] using cpu capabilities: MMX2 SSE2Fast SSSE3 SSE4.2 AVX FMA3 BMI2 AVX2\n",
      "[libx264 @ 0x56020d539180] profile High, level 5.2\n",
      "[libx264 @ 0x56020d539180] 264 - core 155 r2917 0a84d98 - H.264/MPEG-4 AVC codec - Copyleft 2003-2018 - http://www.videolan.org/x264.html - options: cabac=1 ref=3 deblock=1:0:0 analyse=0x3:0x113 me=hex subme=7 psy=1 psy_rd=1.00:0.00 mixed_ref=1 me_range=16 chroma_me=1 trellis=1 8x8dct=1 cqm=0 deadzone=21,11 fast_pskip=1 chroma_qp_offset=-2 threads=12 lookahead_threads=2 sliced_threads=0 nr=0 decimate=1 interlaced=0 bluray_compat=0 constrained_intra=0 bframes=3 b_pyramid=2 b_adapt=1 b_bias=0 direct=1 weightb=1 open_gop=0 weightp=2 keyint=250 keyint_min=25 scenecut=40 intra_refresh=0 rc_lookahead=40 rc=crf mbtree=1 crf=23.0 qcomp=0.60 qpmin=0 qpmax=69 qpstep=4 ip_ratio=1.40 aq=1:1.00\n",
      "Output #0, mp4, to 'test_vids/encoded/waterfall/waterfallAVC_cf23.mp4':\n",
      "  Metadata:\n",
      "    encoder         : Lavf59.22.100\n",
      "  Stream #0:0: Video: h264 (avc1 / 0x31637661), yuv420p(progressive), 3840x2160, q=2-31, 50 fps, 12800 tbn\n",
      "    Metadata:\n",
      "      encoder         : Lavc59.26.100 libx264\n",
      "    Side data:\n",
      "      cpb: bitrate max/min/avg: 0/0/0 buffer size: 0 vbv_delay: N/A\n"
     ]
    },
    {
     "name": "stderr",
     "output_type": "stream",
     "text": [
      "frame=  200 fps=7.5 q=-1.0 Lsize=   44280kB time=00:00:03.94 bitrate=92065.2kbits/s speed=0.147x     x    \n",
      "video:44277kB audio:0kB subtitle:0kB other streams:0kB global headers:0kB muxing overhead: 0.007667%\n",
      "[libx264 @ 0x56020d539180] frame I:1     Avg QP:27.60  size:714773\n",
      "[libx264 @ 0x56020d539180] frame P:50    Avg QP:28.10  size:294324\n",
      "[libx264 @ 0x56020d539180] frame B:149   Avg QP:31.35  size:200724\n",
      "[libx264 @ 0x56020d539180] consecutive B-frames:  0.5%  0.0%  1.5% 98.0%\n",
      "[libx264 @ 0x56020d539180] mb I  I16..4:  1.0% 78.6% 20.5%\n",
      "[libx264 @ 0x56020d539180] mb P  I16..4:  0.5% 32.6%  7.2%  P16..4: 17.6% 12.5%  6.5%  0.0%  0.0%    skip:23.0%\n",
      "[libx264 @ 0x56020d539180] mb B  I16..4:  0.1% 10.8%  2.3%  B16..8: 23.3% 14.4%  4.4%  direct: 6.3%  skip:38.4%  L0:43.0% L1:43.1% BI:13.9%\n",
      "[libx264 @ 0x56020d539180] 8x8 transform intra:81.2% inter:69.6%\n",
      "[libx264 @ 0x56020d539180] coded y,uvDC,uvAC intra: 90.6% 27.0% 4.8% inter: 34.4% 7.7% 0.5%\n",
      "[libx264 @ 0x56020d539180] i16 v,h,dc,p: 23%  6%  2% 69%\n",
      "[libx264 @ 0x56020d539180] i8 v,h,dc,ddl,ddr,vr,hd,vl,hu: 19%  9% 11%  7% 10% 15%  8% 12%  9%\n",
      "[libx264 @ 0x56020d539180] i4 v,h,dc,ddl,ddr,vr,hd,vl,hu: 22%  9% 12%  8% 12% 14%  8%  9%  6%\n",
      "[libx264 @ 0x56020d539180] i8c dc,h,v,p: 80% 10% 10%  1%\n",
      "[libx264 @ 0x56020d539180] Weighted P-Frames: Y:0.0% UV:0.0%\n",
      "[libx264 @ 0x56020d539180] ref P L0: 50.2% 14.6% 21.6% 13.5%\n",
      "[libx264 @ 0x56020d539180] ref B L0: 86.0%  9.4%  4.6%\n",
      "[libx264 @ 0x56020d539180] ref B L1: 96.2%  3.8%\n",
      "[libx264 @ 0x56020d539180] kb/s:90677.73\n",
      "ffmpeg version N-106635-g83e1a1de88 Copyright (c) 2000-2022 the FFmpeg developers\n",
      "  built with gcc 9 (Ubuntu 9.4.0-1ubuntu1~20.04.1)\n",
      "  configuration: --prefix=/home/ubuntu/ffmpeg_build --pkg-config-flags=--static --extra-cflags=-I/home/ubuntu/ffmpeg_build/include --extra-ldflags=-L/home/ubuntu/ffmpeg_build/lib --extra-libs='-lpthread -lm' --ld=g++ --bindir=/home/ubuntu/bin --enable-gpl --enable-gnutls --enable-libaom --enable-libass --enable-libfdk-aac --enable-libfreetype --enable-libmp3lame --enable-libopus --enable-libsvtav1 --enable-libdav1d --enable-libvorbis --enable-libvpx --enable-libx264 --enable-libx265 --enable-libvmaf --enable-version3 --enable-nonfree\n",
      "  libavutil      57. 24.101 / 57. 24.101\n",
      "  libavcodec     59. 26.100 / 59. 26.100\n",
      "  libavformat    59. 22.100 / 59. 22.100\n",
      "  libavdevice    59.  6.100 / 59.  6.100\n",
      "  libavfilter     8. 33.100 /  8. 33.100\n",
      "  libswscale      6.  6.100 /  6.  6.100\n",
      "  libswresample   4.  6.100 /  4.  6.100\n",
      "  libpostproc    56.  5.100 / 56.  5.100\n",
      "[rawvideo @ 0x557da66304c0] Estimating duration from bitrate, this may be inaccurate\n",
      "Input #0, rawvideo, from 'test_vids/refs/waterfall.yuv':\n",
      "  Duration: 00:00:04.00, start: 0.000000, bitrate: 4976640 kb/s\n",
      "  Stream #0:0: Video: rawvideo (I420 / 0x30323449), yuv420p, 3840x2160, 4976640 kb/s, 50 tbr, 50 tbn\n",
      "Stream mapping:\n",
      "  Stream #0:0 -> #0:0 (rawvideo (native) -> h264 (libx264))\n",
      "Press [q] to stop, [?] for help\n",
      "[libx264 @ 0x557da663d180] using cpu capabilities: MMX2 SSE2Fast SSSE3 SSE4.2 AVX FMA3 BMI2 AVX2\n",
      "[libx264 @ 0x557da663d180] profile High, level 5.2\n",
      "[libx264 @ 0x557da663d180] 264 - core 155 r2917 0a84d98 - H.264/MPEG-4 AVC codec - Copyleft 2003-2018 - http://www.videolan.org/x264.html - options: cabac=1 ref=3 deblock=1:0:0 analyse=0x3:0x113 me=hex subme=7 psy=1 psy_rd=1.00:0.00 mixed_ref=1 me_range=16 chroma_me=1 trellis=1 8x8dct=1 cqm=0 deadzone=21,11 fast_pskip=1 chroma_qp_offset=-2 threads=12 lookahead_threads=2 sliced_threads=0 nr=0 decimate=1 interlaced=0 bluray_compat=0 constrained_intra=0 bframes=3 b_pyramid=2 b_adapt=1 b_bias=0 direct=1 weightb=1 open_gop=0 weightp=2 keyint=250 keyint_min=25 scenecut=40 intra_refresh=0 rc_lookahead=40 rc=crf mbtree=1 crf=29.0 qcomp=0.60 qpmin=0 qpmax=69 qpstep=4 ip_ratio=1.40 aq=1:1.00\n",
      "Output #0, mp4, to 'test_vids/encoded/waterfall/waterfallAVC_cf29.mp4':\n",
      "  Metadata:\n",
      "    encoder         : Lavf59.22.100\n",
      "  Stream #0:0: Video: h264 (avc1 / 0x31637661), yuv420p(progressive), 3840x2160, q=2-31, 50 fps, 12800 tbn\n",
      "    Metadata:\n",
      "      encoder         : Lavc59.26.100 libx264\n",
      "    Side data:\n",
      "      cpb: bitrate max/min/avg: 0/0/0 buffer size: 0 vbv_delay: N/A\n",
      "frame=  200 fps= 10 q=-1.0 Lsize=   18940kB time=00:00:03.94 bitrate=39378.2kbits/s speed=0.196x     \n",
      "video:18936kB audio:0kB subtitle:0kB other streams:0kB global headers:0kB muxing overhead: 0.017782%\n",
      "[libx264 @ 0x557da663d180] frame I:1     Avg QP:33.61  size:371230\n",
      "[libx264 @ 0x557da663d180] frame P:50    Avg QP:34.69  size:137367\n",
      "[libx264 @ 0x557da663d180] frame B:149   Avg QP:37.58  size: 81547\n",
      "[libx264 @ 0x557da663d180] consecutive B-frames:  0.5%  0.0%  1.5% 98.0%\n",
      "[libx264 @ 0x557da663d180] mb I  I16..4:  3.7% 82.1% 14.2%\n",
      "[libx264 @ 0x557da663d180] mb P  I16..4:  1.6% 25.1%  2.3%  P16..4: 26.8%  9.5%  3.6%  0.0%  0.0%    skip:31.1%\n",
      "[libx264 @ 0x557da663d180] mb B  I16..4:  0.3%  5.3%  0.2%  B16..8: 32.2%  8.1%  1.2%  direct: 4.4%  skip:48.4%  L0:47.8% L1:48.4% BI: 3.8%\n",
      "[libx264 @ 0x557da663d180] 8x8 transform intra:88.3% inter:79.4%\n",
      "[libx264 @ 0x557da663d180] coded y,uvDC,uvAC intra: 67.7% 15.2% 1.6% inter: 20.9% 3.2% 0.1%\n",
      "[libx264 @ 0x557da663d180] i16 v,h,dc,p: 32% 11%  5% 52%\n",
      "[libx264 @ 0x557da663d180] i8 v,h,dc,ddl,ddr,vr,hd,vl,hu: 18%  8% 17%  7% 10% 14%  8% 11%  7%\n",
      "[libx264 @ 0x557da663d180] i4 v,h,dc,ddl,ddr,vr,hd,vl,hu: 22% 12% 18%  8% 11% 11%  7%  6%  4%\n",
      "[libx264 @ 0x557da663d180] i8c dc,h,v,p: 93%  4%  3%  0%\n",
      "[libx264 @ 0x557da663d180] Weighted P-Frames: Y:0.0% UV:0.0%\n",
      "[libx264 @ 0x557da663d180] ref P L0: 48.7% 12.5% 23.4% 15.4%\n",
      "[libx264 @ 0x557da663d180] ref B L0: 84.1% 10.4%  5.5%\n",
      "[libx264 @ 0x557da663d180] ref B L1: 96.0%  4.0%\n",
      "[libx264 @ 0x557da663d180] kb/s:38780.06\n",
      "ffmpeg version N-106635-g83e1a1de88 Copyright (c) 2000-2022 the FFmpeg developers\n",
      "  built with gcc 9 (Ubuntu 9.4.0-1ubuntu1~20.04.1)\n",
      "  configuration: --prefix=/home/ubuntu/ffmpeg_build --pkg-config-flags=--static --extra-cflags=-I/home/ubuntu/ffmpeg_build/include --extra-ldflags=-L/home/ubuntu/ffmpeg_build/lib --extra-libs='-lpthread -lm' --ld=g++ --bindir=/home/ubuntu/bin --enable-gpl --enable-gnutls --enable-libaom --enable-libass --enable-libfdk-aac --enable-libfreetype --enable-libmp3lame --enable-libopus --enable-libsvtav1 --enable-libdav1d --enable-libvorbis --enable-libvpx --enable-libx264 --enable-libx265 --enable-libvmaf --enable-version3 --enable-nonfree\n",
      "  libavutil      57. 24.101 / 57. 24.101\n",
      "  libavcodec     59. 26.100 / 59. 26.100\n",
      "  libavformat    59. 22.100 / 59. 22.100\n",
      "  libavdevice    59.  6.100 / 59.  6.100\n",
      "  libavfilter     8. 33.100 /  8. 33.100\n",
      "  libswscale      6.  6.100 /  6.  6.100\n",
      "  libswresample   4.  6.100 /  4.  6.100\n",
      "  libpostproc    56.  5.100 / 56.  5.100\n",
      "[rawvideo @ 0x5647c378f4c0] Estimating duration from bitrate, this may be inaccurate\n",
      "Input #0, rawvideo, from 'test_vids/refs/waterfall.yuv':\n",
      "  Duration: 00:00:04.00, start: 0.000000, bitrate: 4976640 kb/s\n",
      "  Stream #0:0: Video: rawvideo (I420 / 0x30323449), yuv420p, 3840x2160, 4976640 kb/s, 50 tbr, 50 tbn\n",
      "Stream mapping:\n",
      "  Stream #0:0 -> #0:0 (rawvideo (native) -> h264 (libx264))\n",
      "Press [q] to stop, [?] for help\n",
      "[libx264 @ 0x5647c379c180] using cpu capabilities: MMX2 SSE2Fast SSSE3 SSE4.2 AVX FMA3 BMI2 AVX2\n",
      "[libx264 @ 0x5647c379c180] profile High, level 5.2\n",
      "[libx264 @ 0x5647c379c180] 264 - core 155 r2917 0a84d98 - H.264/MPEG-4 AVC codec - Copyleft 2003-2018 - http://www.videolan.org/x264.html - options: cabac=1 ref=3 deblock=1:0:0 analyse=0x3:0x113 me=hex subme=7 psy=1 psy_rd=1.00:0.00 mixed_ref=1 me_range=16 chroma_me=1 trellis=1 8x8dct=1 cqm=0 deadzone=21,11 fast_pskip=1 chroma_qp_offset=-2 threads=12 lookahead_threads=2 sliced_threads=0 nr=0 decimate=1 interlaced=0 bluray_compat=0 constrained_intra=0 bframes=3 b_pyramid=2 b_adapt=1 b_bias=0 direct=1 weightb=1 open_gop=0 weightp=2 keyint=250 keyint_min=25 scenecut=40 intra_refresh=0 rc_lookahead=40 rc=crf mbtree=1 crf=35.0 qcomp=0.60 qpmin=0 qpmax=69 qpstep=4 ip_ratio=1.40 aq=1:1.00\n",
      "Output #0, mp4, to 'test_vids/encoded/waterfall/waterfallAVC_cf35.mp4':\n",
      "  Metadata:\n",
      "    encoder         : Lavf59.22.100\n",
      "  Stream #0:0: Video: h264 (avc1 / 0x31637661), yuv420p(progressive), 3840x2160, q=2-31, 50 fps, 12800 tbn\n",
      "    Metadata:\n",
      "      encoder         : Lavc59.26.100 libx264\n",
      "    Side data:\n",
      "      cpb: bitrate max/min/avg: 0/0/0 buffer size: 0 vbv_delay: N/A\n"
     ]
    },
    {
     "name": "stderr",
     "output_type": "stream",
     "text": [
      "frame=  200 fps= 12 q=-1.0 Lsize=    7163kB time=00:00:03.94 bitrate=14892.0kbits/s speed=0.24x      \n",
      "video:7159kB audio:0kB subtitle:0kB other streams:0kB global headers:0kB muxing overhead: 0.045396%\n",
      "[libx264 @ 0x5647c379c180] frame I:1     Avg QP:39.62  size:177473\n",
      "[libx264 @ 0x5647c379c180] frame P:50    Avg QP:41.40  size: 56938\n",
      "[libx264 @ 0x5647c379c180] frame B:149   Avg QP:43.80  size: 28900\n",
      "[libx264 @ 0x5647c379c180] consecutive B-frames:  0.5%  0.0%  1.5% 98.0%\n",
      "[libx264 @ 0x5647c379c180] mb I  I16..4: 11.8% 80.8%  7.4%\n",
      "[libx264 @ 0x5647c379c180] mb P  I16..4:  3.6% 12.9%  0.2%  P16..4: 32.6%  3.7%  2.1%  0.0%  0.0%    skip:44.8%\n",
      "[libx264 @ 0x5647c379c180] mb B  I16..4:  0.3%  1.2%  0.0%  B16..8: 33.4%  1.9%  0.1%  direct: 0.5%  skip:62.5%  L0:49.7% L1:49.8% BI: 0.6%\n",
      "[libx264 @ 0x5647c379c180] 8x8 transform intra:78.3% inter:94.2%\n",
      "[libx264 @ 0x5647c379c180] coded y,uvDC,uvAC intra: 35.0% 12.0% 0.9% inter: 8.6% 1.4% 0.0%\n",
      "[libx264 @ 0x5647c379c180] i16 v,h,dc,p: 34% 20%  8% 38%\n",
      "[libx264 @ 0x5647c379c180] i8 v,h,dc,ddl,ddr,vr,hd,vl,hu: 17%  8% 29%  8%  8% 10%  7%  8%  5%\n",
      "[libx264 @ 0x5647c379c180] i4 v,h,dc,ddl,ddr,vr,hd,vl,hu: 16% 16% 26%  8% 10%  7%  8%  4%  4%\n",
      "[libx264 @ 0x5647c379c180] i8c dc,h,v,p: 98%  1%  1%  0%\n",
      "[libx264 @ 0x5647c379c180] Weighted P-Frames: Y:0.0% UV:0.0%\n",
      "[libx264 @ 0x5647c379c180] ref P L0: 48.1%  7.2% 27.5% 17.2%\n",
      "[libx264 @ 0x5647c379c180] ref B L0: 80.3% 12.8%  6.9%\n",
      "[libx264 @ 0x5647c379c180] ref B L1: 94.5%  5.5%\n",
      "[libx264 @ 0x5647c379c180] kb/s:14660.84\n"
     ]
    }
   ],
   "source": [
    "import os\n",
    "import subprocess\n",
    "source = \"waterfall\"\n",
    "path = \"test_vids/refs/\" + source + \".yuv\"\n",
    "res_width = 3840\n",
    "res_height = 2160\n",
    "quality = [10, 17, 23, 29, 35]\n",
    "#quality = [10, 14, 17, 20, 23, 26, 29, 32, 35, 40]\n",
    "for current_crf in range(0,5):\n",
    "    out = \"test_vids/encoded/\" + source + \"/\" + source + \"AVC_cf\" + str(quality[current_crf]) + \".mp4\"\n",
    "    to_avc = f\"ffmpeg -f rawvideo -video_size {res_width}x{res_height} \\\n",
    "    -r 50 -pixel_format yuv420p -i {path} -c:v libx264 -crf {quality[current_crf]} {out}\"\n",
    "    subprocess.call(to_avc, shell=True)"
   ]
  },
  {
   "cell_type": "markdown",
   "id": "9d5a7062",
   "metadata": {},
   "source": [
    "## From YUV multires to H265 HEVC"
   ]
  },
  {
   "cell_type": "code",
   "execution_count": 9,
   "id": "b72f54a2",
   "metadata": {},
   "outputs": [
    {
     "name": "stderr",
     "output_type": "stream",
     "text": [
      "ffmpeg version N-106635-g83e1a1de88 Copyright (c) 2000-2022 the FFmpeg developers\n",
      "  built with gcc 9 (Ubuntu 9.4.0-1ubuntu1~20.04.1)\n",
      "  configuration: --prefix=/home/ubuntu/ffmpeg_build --pkg-config-flags=--static --extra-cflags=-I/home/ubuntu/ffmpeg_build/include --extra-ldflags=-L/home/ubuntu/ffmpeg_build/lib --extra-libs='-lpthread -lm' --ld=g++ --bindir=/home/ubuntu/bin --enable-gpl --enable-gnutls --enable-libaom --enable-libass --enable-libfdk-aac --enable-libfreetype --enable-libmp3lame --enable-libopus --enable-libsvtav1 --enable-libdav1d --enable-libvorbis --enable-libvpx --enable-libx264 --enable-libx265 --enable-libvmaf --enable-version3 --enable-nonfree\n",
      "  libavutil      57. 24.101 / 57. 24.101\n",
      "  libavcodec     59. 26.100 / 59. 26.100\n",
      "  libavformat    59. 22.100 / 59. 22.100\n",
      "  libavdevice    59.  6.100 / 59.  6.100\n",
      "  libavfilter     8. 33.100 /  8. 33.100\n",
      "  libswscale      6.  6.100 /  6.  6.100\n",
      "  libswresample   4.  6.100 /  4.  6.100\n",
      "  libpostproc    56.  5.100 / 56.  5.100\n",
      "[rawvideo @ 0x55fb0d66d4c0] Estimating duration from bitrate, this may be inaccurate\n",
      "Input #0, rawvideo, from 'test_vids/refs/waterfall.yuv':\n",
      "  Duration: 00:00:04.00, start: 0.000000, bitrate: 4976640 kb/s\n",
      "  Stream #0:0: Video: rawvideo (I420 / 0x30323449), yuv420p, 3840x2160, 4976640 kb/s, 50 tbr, 50 tbn\n",
      "Stream mapping:\n",
      "  Stream #0:0 -> #0:0 (rawvideo (native) -> hevc (libx265))\n",
      "Press [q] to stop, [?] for help\n",
      "x265 [info]: HEVC encoder version 3.2.1+1-b5c86a64bbbe\n",
      "x265 [info]: build info [Linux][GCC 9.3.0][64 bit] 8bit+10bit+12bit\n",
      "x265 [info]: using cpu capabilities: MMX2 SSE2Fast LZCNT SSSE3 SSE4.2 AVX FMA3 BMI2 AVX2\n",
      "x265 [info]: Main profile, Level-5.1 (Main tier)\n",
      "x265 [info]: Thread pool created using 8 threads\n",
      "x265 [info]: Slices                              : 1\n",
      "x265 [info]: frame threads / pool features       : 3 / wpp(34 rows)\n",
      "x265 [info]: Coding QT: max CU size, min CU size : 64 / 8\n",
      "x265 [info]: Residual QT: max TU size, max depth : 32 / 1 inter / 1 intra\n",
      "x265 [info]: ME / range / subpel / merge         : hex / 57 / 2 / 3\n",
      "x265 [info]: Keyframe min / max / scenecut / bias: 25 / 250 / 40 / 5.00\n",
      "x265 [info]: Lookahead / bframes / badapt        : 20 / 4 / 2\n",
      "x265 [info]: b-pyramid / weightp / weightb       : 1 / 1 / 0\n",
      "x265 [info]: References / ref-limit  cu / depth  : 3 / off / on\n",
      "x265 [info]: AQ: mode / str / qg-size / cu-tree  : 2 / 1.0 / 32 / 1\n",
      "x265 [info]: Rate Control / qCompress            : CRF-15.0 / 0.60\n",
      "x265 [info]: tools: rd=3 psy-rd=2.00 early-skip rskip signhide tmvp b-intra\n",
      "x265 [info]: tools: strong-intra-smoothing lslices=8 deblock sao\n",
      "Output #0, mp4, to 'test_vids/encoded/waterfall/waterfallHEVC_cf15.mp4':\n",
      "  Metadata:\n",
      "    encoder         : Lavf59.22.100\n",
      "  Stream #0:0: Video: hevc (hev1 / 0x31766568), yuv420p(progressive), 3840x2160, q=2-31, 50 fps, 12800 tbn\n",
      "    Metadata:\n",
      "      encoder         : Lavc59.26.100 libx265\n",
      "    Side data:\n",
      "      cpb: bitrate max/min/avg: 0/0/0 buffer size: 0 vbv_delay: N/A\n",
      "frame=  200 fps=1.8 q=23.9 Lsize=  102228kB time=00:00:03.94 bitrate=212546.8kbits/s speed=0.0362x     \n",
      "video:102221kB audio:0kB subtitle:0kB other streams:0kB global headers:2kB muxing overhead: 0.007032%\n",
      "x265 [info]: frame I:      1, Avg QP:18.08  kb/s: 592200.00\n",
      "x265 [info]: frame P:     49, Avg QP:18.36  kb/s: 299440.26\n",
      "x265 [info]: frame B:    150, Avg QP:23.29  kb/s: 177363.42\n",
      "x265 [info]: Weighted P-Frames: Y:0.0% UV:0.0%\n",
      "x265 [info]: consecutive B-frames: 2.0% 0.0% 0.0% 92.0% 6.0% \n",
      "\n",
      "encoded 200 frames in 108.96s (1.84 fps), 209346.44 kb/s, Avg QP:22.05\n",
      "ffmpeg version N-106635-g83e1a1de88 Copyright (c) 2000-2022 the FFmpeg developers\n",
      "  built with gcc 9 (Ubuntu 9.4.0-1ubuntu1~20.04.1)\n",
      "  configuration: --prefix=/home/ubuntu/ffmpeg_build --pkg-config-flags=--static --extra-cflags=-I/home/ubuntu/ffmpeg_build/include --extra-ldflags=-L/home/ubuntu/ffmpeg_build/lib --extra-libs='-lpthread -lm' --ld=g++ --bindir=/home/ubuntu/bin --enable-gpl --enable-gnutls --enable-libaom --enable-libass --enable-libfdk-aac --enable-libfreetype --enable-libmp3lame --enable-libopus --enable-libsvtav1 --enable-libdav1d --enable-libvorbis --enable-libvpx --enable-libx264 --enable-libx265 --enable-libvmaf --enable-version3 --enable-nonfree\n",
      "  libavutil      57. 24.101 / 57. 24.101\n",
      "  libavcodec     59. 26.100 / 59. 26.100\n",
      "  libavformat    59. 22.100 / 59. 22.100\n",
      "  libavdevice    59.  6.100 / 59.  6.100\n",
      "  libavfilter     8. 33.100 /  8. 33.100\n",
      "  libswscale      6.  6.100 /  6.  6.100\n",
      "  libswresample   4.  6.100 /  4.  6.100\n",
      "  libpostproc    56.  5.100 / 56.  5.100\n",
      "[rawvideo @ 0x563c182f14c0] Estimating duration from bitrate, this may be inaccurate\n",
      "Input #0, rawvideo, from 'test_vids/refs/waterfall.yuv':\n",
      "  Duration: 00:00:04.00, start: 0.000000, bitrate: 4976640 kb/s\n",
      "  Stream #0:0: Video: rawvideo (I420 / 0x30323449), yuv420p, 3840x2160, 4976640 kb/s, 50 tbr, 50 tbn\n",
      "Stream mapping:\n",
      "  Stream #0:0 -> #0:0 (rawvideo (native) -> hevc (libx265))\n",
      "Press [q] to stop, [?] for help\n",
      "x265 [info]: HEVC encoder version 3.2.1+1-b5c86a64bbbe\n",
      "x265 [info]: build info [Linux][GCC 9.3.0][64 bit] 8bit+10bit+12bit\n",
      "x265 [info]: using cpu capabilities: MMX2 SSE2Fast LZCNT SSSE3 SSE4.2 AVX FMA3 BMI2 AVX2\n",
      "x265 [info]: Main profile, Level-5.1 (Main tier)\n",
      "x265 [info]: Thread pool created using 8 threads\n",
      "x265 [info]: Slices                              : 1\n",
      "x265 [info]: frame threads / pool features       : 3 / wpp(34 rows)\n",
      "x265 [info]: Coding QT: max CU size, min CU size : 64 / 8\n",
      "x265 [info]: Residual QT: max TU size, max depth : 32 / 1 inter / 1 intra\n",
      "x265 [info]: ME / range / subpel / merge         : hex / 57 / 2 / 3\n",
      "x265 [info]: Keyframe min / max / scenecut / bias: 25 / 250 / 40 / 5.00\n",
      "x265 [info]: Lookahead / bframes / badapt        : 20 / 4 / 2\n",
      "x265 [info]: b-pyramid / weightp / weightb       : 1 / 1 / 0\n",
      "x265 [info]: References / ref-limit  cu / depth  : 3 / off / on\n",
      "x265 [info]: AQ: mode / str / qg-size / cu-tree  : 2 / 1.0 / 32 / 1\n",
      "x265 [info]: Rate Control / qCompress            : CRF-22.0 / 0.60\n",
      "x265 [info]: tools: rd=3 psy-rd=2.00 early-skip rskip signhide tmvp b-intra\n",
      "x265 [info]: tools: strong-intra-smoothing lslices=8 deblock sao\n",
      "Output #0, mp4, to 'test_vids/encoded/waterfall/waterfallHEVC_cf22.mp4':\n",
      "  Metadata:\n",
      "    encoder         : Lavf59.22.100\n",
      "  Stream #0:0: Video: hevc (hev1 / 0x31766568), yuv420p(progressive), 3840x2160, q=2-31, 50 fps, 12800 tbn\n",
      "    Metadata:\n",
      "      encoder         : Lavc59.26.100 libx265\n",
      "    Side data:\n",
      "      cpb: bitrate max/min/avg: 0/0/0 buffer size: 0 vbv_delay: N/A\n",
      "frame=  200 fps=2.3 q=31.0 Lsize=   47310kB time=00:00:03.94 bitrate=98364.4kbits/s speed=0.0457x     \n",
      "video:47304kB audio:0kB subtitle:0kB other streams:0kB global headers:2kB muxing overhead: 0.012042%\n",
      "x265 [info]: frame I:      1, Avg QP:25.08  kb/s: 310613.60\n",
      "x265 [info]: frame P:     49, Avg QP:25.54  kb/s: 141524.10\n",
      "x265 [info]: frame B:    150, Avg QP:30.37  kb/s: 80868.13\n",
      "x265 [info]: Weighted P-Frames: Y:0.0% UV:0.0%\n",
      "x265 [info]: consecutive B-frames: 2.0% 0.0% 0.0% 92.0% 6.0% \n",
      "\n",
      "encoded 200 frames in 86.29s (2.32 fps), 96877.57 kb/s, Avg QP:29.16\n",
      "ffmpeg version N-106635-g83e1a1de88 Copyright (c) 2000-2022 the FFmpeg developers\n",
      "  built with gcc 9 (Ubuntu 9.4.0-1ubuntu1~20.04.1)\n",
      "  configuration: --prefix=/home/ubuntu/ffmpeg_build --pkg-config-flags=--static --extra-cflags=-I/home/ubuntu/ffmpeg_build/include --extra-ldflags=-L/home/ubuntu/ffmpeg_build/lib --extra-libs='-lpthread -lm' --ld=g++ --bindir=/home/ubuntu/bin --enable-gpl --enable-gnutls --enable-libaom --enable-libass --enable-libfdk-aac --enable-libfreetype --enable-libmp3lame --enable-libopus --enable-libsvtav1 --enable-libdav1d --enable-libvorbis --enable-libvpx --enable-libx264 --enable-libx265 --enable-libvmaf --enable-version3 --enable-nonfree\n",
      "  libavutil      57. 24.101 / 57. 24.101\n",
      "  libavcodec     59. 26.100 / 59. 26.100\n",
      "  libavformat    59. 22.100 / 59. 22.100\n",
      "  libavdevice    59.  6.100 / 59.  6.100\n",
      "  libavfilter     8. 33.100 /  8. 33.100\n",
      "  libswscale      6.  6.100 /  6.  6.100\n",
      "  libswresample   4.  6.100 /  4.  6.100\n",
      "  libpostproc    56.  5.100 / 56.  5.100\n",
      "[rawvideo @ 0x55ba292c64c0] Estimating duration from bitrate, this may be inaccurate\n",
      "Input #0, rawvideo, from 'test_vids/refs/waterfall.yuv':\n",
      "  Duration: 00:00:04.00, start: 0.000000, bitrate: 4976640 kb/s\n",
      "  Stream #0:0: Video: rawvideo (I420 / 0x30323449), yuv420p, 3840x2160, 4976640 kb/s, 50 tbr, 50 tbn\n",
      "Stream mapping:\n",
      "  Stream #0:0 -> #0:0 (rawvideo (native) -> hevc (libx265))\n",
      "Press [q] to stop, [?] for help\n",
      "x265 [info]: HEVC encoder version 3.2.1+1-b5c86a64bbbe\n",
      "x265 [info]: build info [Linux][GCC 9.3.0][64 bit] 8bit+10bit+12bit\n",
      "x265 [info]: using cpu capabilities: MMX2 SSE2Fast LZCNT SSSE3 SSE4.2 AVX FMA3 BMI2 AVX2\n",
      "x265 [info]: Main profile, Level-5.1 (Main tier)\n",
      "x265 [info]: Thread pool created using 8 threads\n",
      "x265 [info]: Slices                              : 1\n",
      "x265 [info]: frame threads / pool features       : 3 / wpp(34 rows)\n",
      "x265 [info]: Coding QT: max CU size, min CU size : 64 / 8\n",
      "x265 [info]: Residual QT: max TU size, max depth : 32 / 1 inter / 1 intra\n",
      "x265 [info]: ME / range / subpel / merge         : hex / 57 / 2 / 3\n",
      "x265 [info]: Keyframe min / max / scenecut / bias: 25 / 250 / 40 / 5.00\n",
      "x265 [info]: Lookahead / bframes / badapt        : 20 / 4 / 2\n",
      "x265 [info]: b-pyramid / weightp / weightb       : 1 / 1 / 0\n",
      "x265 [info]: References / ref-limit  cu / depth  : 3 / off / on\n",
      "x265 [info]: AQ: mode / str / qg-size / cu-tree  : 2 / 1.0 / 32 / 1\n",
      "x265 [info]: Rate Control / qCompress            : CRF-28.0 / 0.60\n",
      "x265 [info]: tools: rd=3 psy-rd=2.00 early-skip rskip signhide tmvp b-intra\n",
      "x265 [info]: tools: strong-intra-smoothing lslices=8 deblock sao\n",
      "Output #0, mp4, to 'test_vids/encoded/waterfall/waterfallHEVC_cf28.mp4':\n",
      "  Metadata:\n",
      "    encoder         : Lavf59.22.100\n",
      "  Stream #0:0: Video: hevc (hev1 / 0x31766568), yuv420p(progressive), 3840x2160, q=2-31, 50 fps, 12800 tbn\n",
      "    Metadata:\n",
      "      encoder         : Lavc59.26.100 libx265\n",
      "    Side data:\n",
      "      cpb: bitrate max/min/avg: 0/0/0 buffer size: 0 vbv_delay: N/A\n"
     ]
    },
    {
     "name": "stderr",
     "output_type": "stream",
     "text": [
      "frame=  200 fps=3.0 q=37.1 Lsize=   21824kB time=00:00:03.94 bitrate=45376.3kbits/s speed=0.0587x     \n",
      "video:21819kB audio:0kB subtitle:0kB other streams:0kB global headers:2kB muxing overhead: 0.025946%\n",
      "x265 [info]: frame I:      1, Avg QP:31.08  kb/s: 167787.20\n",
      "x265 [info]: frame P:     49, Avg QP:31.93  kb/s: 70539.83\n",
      "x265 [info]: frame B:    150, Avg QP:36.43  kb/s: 35416.17\n",
      "x265 [info]: Weighted P-Frames: Y:0.0% UV:0.0%\n",
      "x265 [info]: consecutive B-frames: 2.0% 0.0% 0.0% 92.0% 6.0% \n",
      "\n",
      "encoded 200 frames in 67.12s (2.98 fps), 44683.32 kb/s, Avg QP:35.30\n",
      "ffmpeg version N-106635-g83e1a1de88 Copyright (c) 2000-2022 the FFmpeg developers\n",
      "  built with gcc 9 (Ubuntu 9.4.0-1ubuntu1~20.04.1)\n",
      "  configuration: --prefix=/home/ubuntu/ffmpeg_build --pkg-config-flags=--static --extra-cflags=-I/home/ubuntu/ffmpeg_build/include --extra-ldflags=-L/home/ubuntu/ffmpeg_build/lib --extra-libs='-lpthread -lm' --ld=g++ --bindir=/home/ubuntu/bin --enable-gpl --enable-gnutls --enable-libaom --enable-libass --enable-libfdk-aac --enable-libfreetype --enable-libmp3lame --enable-libopus --enable-libsvtav1 --enable-libdav1d --enable-libvorbis --enable-libvpx --enable-libx264 --enable-libx265 --enable-libvmaf --enable-version3 --enable-nonfree\n",
      "  libavutil      57. 24.101 / 57. 24.101\n",
      "  libavcodec     59. 26.100 / 59. 26.100\n",
      "  libavformat    59. 22.100 / 59. 22.100\n",
      "  libavdevice    59.  6.100 / 59.  6.100\n",
      "  libavfilter     8. 33.100 /  8. 33.100\n",
      "  libswscale      6.  6.100 /  6.  6.100\n",
      "  libswresample   4.  6.100 /  4.  6.100\n",
      "  libpostproc    56.  5.100 / 56.  5.100\n",
      "[rawvideo @ 0x5607215a94c0] Estimating duration from bitrate, this may be inaccurate\n",
      "Input #0, rawvideo, from 'test_vids/refs/waterfall.yuv':\n",
      "  Duration: 00:00:04.00, start: 0.000000, bitrate: 4976640 kb/s\n",
      "  Stream #0:0: Video: rawvideo (I420 / 0x30323449), yuv420p, 3840x2160, 4976640 kb/s, 50 tbr, 50 tbn\n",
      "Stream mapping:\n",
      "  Stream #0:0 -> #0:0 (rawvideo (native) -> hevc (libx265))\n",
      "Press [q] to stop, [?] for help\n",
      "x265 [info]: HEVC encoder version 3.2.1+1-b5c86a64bbbe\n",
      "x265 [info]: build info [Linux][GCC 9.3.0][64 bit] 8bit+10bit+12bit\n",
      "x265 [info]: using cpu capabilities: MMX2 SSE2Fast LZCNT SSSE3 SSE4.2 AVX FMA3 BMI2 AVX2\n",
      "x265 [info]: Main profile, Level-5.1 (Main tier)\n",
      "x265 [info]: Thread pool created using 8 threads\n",
      "x265 [info]: Slices                              : 1\n",
      "x265 [info]: frame threads / pool features       : 3 / wpp(34 rows)\n",
      "x265 [info]: Coding QT: max CU size, min CU size : 64 / 8\n",
      "x265 [info]: Residual QT: max TU size, max depth : 32 / 1 inter / 1 intra\n",
      "x265 [info]: ME / range / subpel / merge         : hex / 57 / 2 / 3\n",
      "x265 [info]: Keyframe min / max / scenecut / bias: 25 / 250 / 40 / 5.00\n",
      "x265 [info]: Lookahead / bframes / badapt        : 20 / 4 / 2\n",
      "x265 [info]: b-pyramid / weightp / weightb       : 1 / 1 / 0\n",
      "x265 [info]: References / ref-limit  cu / depth  : 3 / off / on\n",
      "x265 [info]: AQ: mode / str / qg-size / cu-tree  : 2 / 1.0 / 32 / 1\n",
      "x265 [info]: Rate Control / qCompress            : CRF-34.0 / 0.60\n",
      "x265 [info]: tools: rd=3 psy-rd=2.00 early-skip rskip signhide tmvp b-intra\n",
      "x265 [info]: tools: strong-intra-smoothing lslices=8 deblock sao\n",
      "Output #0, mp4, to 'test_vids/encoded/waterfall/waterfallHEVC_cf34.mp4':\n",
      "  Metadata:\n",
      "    encoder         : Lavf59.22.100\n",
      "  Stream #0:0: Video: hevc (hev1 / 0x31766568), yuv420p(progressive), 3840x2160, q=2-31, 50 fps, 12800 tbn\n",
      "    Metadata:\n",
      "      encoder         : Lavc59.26.100 libx265\n",
      "    Side data:\n",
      "      cpb: bitrate max/min/avg: 0/0/0 buffer size: 0 vbv_delay: N/A\n",
      "frame=  200 fps=4.3 q=43.2 Lsize=    8279kB time=00:00:03.94 bitrate=17213.3kbits/s speed=0.0854x    \n",
      "video:8273kB audio:0kB subtitle:0kB other streams:0kB global headers:2kB muxing overhead: 0.067151%\n",
      "x265 [info]: frame I:      1, Avg QP:37.09  kb/s: 81976.80\n",
      "x265 [info]: frame P:     49, Avg QP:38.63  kb/s: 30796.07\n",
      "x265 [info]: frame B:    150, Avg QP:42.53  kb/s: 11983.33\n",
      "x265 [info]: Weighted P-Frames: Y:0.0% UV:0.0%\n",
      "x265 [info]: consecutive B-frames: 2.0% 0.0% 0.0% 92.0% 6.0% \n",
      "\n",
      "encoded 200 frames in 46.15s (4.33 fps), 16942.42 kb/s, Avg QP:41.55\n",
      "ffmpeg version N-106635-g83e1a1de88 Copyright (c) 2000-2022 the FFmpeg developers\n",
      "  built with gcc 9 (Ubuntu 9.4.0-1ubuntu1~20.04.1)\n",
      "  configuration: --prefix=/home/ubuntu/ffmpeg_build --pkg-config-flags=--static --extra-cflags=-I/home/ubuntu/ffmpeg_build/include --extra-ldflags=-L/home/ubuntu/ffmpeg_build/lib --extra-libs='-lpthread -lm' --ld=g++ --bindir=/home/ubuntu/bin --enable-gpl --enable-gnutls --enable-libaom --enable-libass --enable-libfdk-aac --enable-libfreetype --enable-libmp3lame --enable-libopus --enable-libsvtav1 --enable-libdav1d --enable-libvorbis --enable-libvpx --enable-libx264 --enable-libx265 --enable-libvmaf --enable-version3 --enable-nonfree\n",
      "  libavutil      57. 24.101 / 57. 24.101\n",
      "  libavcodec     59. 26.100 / 59. 26.100\n",
      "  libavformat    59. 22.100 / 59. 22.100\n",
      "  libavdevice    59.  6.100 / 59.  6.100\n",
      "  libavfilter     8. 33.100 /  8. 33.100\n",
      "  libswscale      6.  6.100 /  6.  6.100\n",
      "  libswresample   4.  6.100 /  4.  6.100\n",
      "  libpostproc    56.  5.100 / 56.  5.100\n",
      "[rawvideo @ 0x55a8e09f24c0] Estimating duration from bitrate, this may be inaccurate\n",
      "Input #0, rawvideo, from 'test_vids/refs/waterfall.yuv':\n",
      "  Duration: 00:00:04.00, start: 0.000000, bitrate: 4976640 kb/s\n",
      "  Stream #0:0: Video: rawvideo (I420 / 0x30323449), yuv420p, 3840x2160, 4976640 kb/s, 50 tbr, 50 tbn\n",
      "Stream mapping:\n",
      "  Stream #0:0 -> #0:0 (rawvideo (native) -> hevc (libx265))\n",
      "Press [q] to stop, [?] for help\n",
      "x265 [info]: HEVC encoder version 3.2.1+1-b5c86a64bbbe\n",
      "x265 [info]: build info [Linux][GCC 9.3.0][64 bit] 8bit+10bit+12bit\n",
      "x265 [info]: using cpu capabilities: MMX2 SSE2Fast LZCNT SSSE3 SSE4.2 AVX FMA3 BMI2 AVX2\n",
      "x265 [info]: Main profile, Level-5.1 (Main tier)\n",
      "x265 [info]: Thread pool created using 8 threads\n",
      "x265 [info]: Slices                              : 1\n",
      "x265 [info]: frame threads / pool features       : 3 / wpp(34 rows)\n",
      "x265 [info]: Coding QT: max CU size, min CU size : 64 / 8\n",
      "x265 [info]: Residual QT: max TU size, max depth : 32 / 1 inter / 1 intra\n",
      "x265 [info]: ME / range / subpel / merge         : hex / 57 / 2 / 3\n",
      "x265 [info]: Keyframe min / max / scenecut / bias: 25 / 250 / 40 / 5.00\n",
      "x265 [info]: Lookahead / bframes / badapt        : 20 / 4 / 2\n",
      "x265 [info]: b-pyramid / weightp / weightb       : 1 / 1 / 0\n",
      "x265 [info]: References / ref-limit  cu / depth  : 3 / off / on\n",
      "x265 [info]: AQ: mode / str / qg-size / cu-tree  : 2 / 1.0 / 32 / 1\n",
      "x265 [info]: Rate Control / qCompress            : CRF-40.0 / 0.60\n",
      "x265 [info]: tools: rd=3 psy-rd=2.00 early-skip rskip signhide tmvp b-intra\n",
      "x265 [info]: tools: strong-intra-smoothing lslices=8 deblock sao\n",
      "Output #0, mp4, to 'test_vids/encoded/waterfall/waterfallHEVC_cf40.mp4':\n",
      "  Metadata:\n",
      "    encoder         : Lavf59.22.100\n",
      "  Stream #0:0: Video: hevc (hev1 / 0x31766568), yuv420p(progressive), 3840x2160, q=2-31, 50 fps, 12800 tbn\n",
      "    Metadata:\n",
      "      encoder         : Lavc59.26.100 libx265\n",
      "    Side data:\n",
      "      cpb: bitrate max/min/avg: 0/0/0 buffer size: 0 vbv_delay: N/A\n",
      "frame=  200 fps=6.4 q=49.4 Lsize=    2222kB time=00:00:03.94 bitrate=4619.8kbits/s speed=0.126x    \n",
      "video:2216kB audio:0kB subtitle:0kB other streams:0kB global headers:2kB muxing overhead: 0.248540%\n",
      "x265 [info]: frame I:      1, Avg QP:43.09  kb/s: 34100.00\n",
      "x265 [info]: frame P:     49, Avg QP:45.45  kb/s: 10363.18\n",
      "x265 [info]: frame B:    150, Avg QP:48.73  kb/s: 2437.65 \n",
      "x265 [info]: Weighted P-Frames: Y:0.0% UV:0.0%\n",
      "x265 [info]: consecutive B-frames: 2.0% 0.0% 0.0% 92.0% 6.0% \n",
      "\n",
      "encoded 200 frames in 31.19s (6.41 fps), 4537.72 kb/s, Avg QP:47.90\n"
     ]
    }
   ],
   "source": [
    "import os\n",
    "import subprocess\n",
    "source = \"waterfall\"\n",
    "path = \"test_vids/refs/\" + source + \".yuv\"\n",
    "res_width = 3840\n",
    "res_height = 2160\n",
    "quality = [15, 22, 28, 34, 40]\n",
    "for current_crf in range(0,5):\n",
    "    out = \"test_vids/encoded/\" + source + \"/\" + source + \"HEVC_cf\" + str(quality[current_crf]) + \".mp4\"\n",
    "    to_avc = f\"ffmpeg -f rawvideo -video_size {res_width}x{res_height} \\\n",
    "    -r 50 -pixel_format yuv420p -i {path} -c:v libx265 -crf {quality[current_crf]} {out}\"\n",
    "    subprocess.call(to_avc, shell=True)"
   ]
  },
  {
   "cell_type": "markdown",
   "id": "5a48bd95",
   "metadata": {},
   "source": [
    "## From YUV multires to VP9 WEBM"
   ]
  },
  {
   "cell_type": "code",
   "execution_count": 12,
   "id": "fc5e42a8",
   "metadata": {},
   "outputs": [
    {
     "name": "stderr",
     "output_type": "stream",
     "text": [
      "ffmpeg version N-106635-g83e1a1de88 Copyright (c) 2000-2022 the FFmpeg developers\n",
      "  built with gcc 9 (Ubuntu 9.4.0-1ubuntu1~20.04.1)\n",
      "  configuration: --prefix=/home/ubuntu/ffmpeg_build --pkg-config-flags=--static --extra-cflags=-I/home/ubuntu/ffmpeg_build/include --extra-ldflags=-L/home/ubuntu/ffmpeg_build/lib --extra-libs='-lpthread -lm' --ld=g++ --bindir=/home/ubuntu/bin --enable-gpl --enable-gnutls --enable-libaom --enable-libass --enable-libfdk-aac --enable-libfreetype --enable-libmp3lame --enable-libopus --enable-libsvtav1 --enable-libdav1d --enable-libvorbis --enable-libvpx --enable-libx264 --enable-libx265 --enable-libvmaf --enable-version3 --enable-nonfree\n",
      "  libavutil      57. 24.101 / 57. 24.101\n",
      "  libavcodec     59. 26.100 / 59. 26.100\n",
      "  libavformat    59. 22.100 / 59. 22.100\n",
      "  libavdevice    59.  6.100 / 59.  6.100\n",
      "  libavfilter     8. 33.100 /  8. 33.100\n",
      "  libswscale      6.  6.100 /  6.  6.100\n",
      "  libswresample   4.  6.100 /  4.  6.100\n",
      "  libpostproc    56.  5.100 / 56.  5.100\n",
      "[rawvideo @ 0x55a87a059500] Estimating duration from bitrate, this may be inaccurate\n",
      "Input #0, rawvideo, from 'test_vids/refs/waterfall.yuv':\n",
      "  Duration: 00:00:04.00, start: 0.000000, bitrate: 4976640 kb/s\n",
      "  Stream #0:0: Video: rawvideo (I420 / 0x30323449), yuv420p, 3840x2160, 4976640 kb/s, 50 tbr, 50 tbn\n",
      "Stream mapping:\n",
      "  Stream #0:0 -> #0:0 (rawvideo (native) -> vp9 (libvpx-vp9))\n",
      "Press [q] to stop, [?] for help\n",
      "[libvpx-vp9 @ 0x55a87a0662c0] v1.8.2\n",
      "Output #0, webm, to 'test_vids/encoded/waterfall/waterfallVP9_cf15.webm':\n",
      "  Metadata:\n",
      "    encoder         : Lavf59.22.100\n",
      "  Stream #0:0: Video: vp9, yuv420p(progressive), 3840x2160, q=2-31, 50 fps, 1k tbn\n",
      "    Metadata:\n",
      "      encoder         : Lavc59.26.100 libvpx-vp9\n",
      "    Side data:\n",
      "      cpb: bitrate max/min/avg: 0/0/0 buffer size: 0 vbv_delay: N/A\n",
      "frame=  200 fps=0.6 q=15.0 Lsize=  139686kB time=00:00:03.98 bitrate=287441.3kbits/s speed=0.0123x    \n",
      "video:139683kB audio:0kB subtitle:0kB other streams:0kB global headers:0kB muxing overhead: 0.001713%\n",
      "ffmpeg version N-106635-g83e1a1de88 Copyright (c) 2000-2022 the FFmpeg developers\n",
      "  built with gcc 9 (Ubuntu 9.4.0-1ubuntu1~20.04.1)\n",
      "  configuration: --prefix=/home/ubuntu/ffmpeg_build --pkg-config-flags=--static --extra-cflags=-I/home/ubuntu/ffmpeg_build/include --extra-ldflags=-L/home/ubuntu/ffmpeg_build/lib --extra-libs='-lpthread -lm' --ld=g++ --bindir=/home/ubuntu/bin --enable-gpl --enable-gnutls --enable-libaom --enable-libass --enable-libfdk-aac --enable-libfreetype --enable-libmp3lame --enable-libopus --enable-libsvtav1 --enable-libdav1d --enable-libvorbis --enable-libvpx --enable-libx264 --enable-libx265 --enable-libvmaf --enable-version3 --enable-nonfree\n",
      "  libavutil      57. 24.101 / 57. 24.101\n",
      "  libavcodec     59. 26.100 / 59. 26.100\n",
      "  libavformat    59. 22.100 / 59. 22.100\n",
      "  libavdevice    59.  6.100 / 59.  6.100\n",
      "  libavfilter     8. 33.100 /  8. 33.100\n",
      "  libswscale      6.  6.100 /  6.  6.100\n",
      "  libswresample   4.  6.100 /  4.  6.100\n",
      "  libpostproc    56.  5.100 / 56.  5.100\n",
      "[rawvideo @ 0x56153fc49500] Estimating duration from bitrate, this may be inaccurate\n",
      "Input #0, rawvideo, from 'test_vids/refs/waterfall.yuv':\n",
      "  Duration: 00:00:04.00, start: 0.000000, bitrate: 4976640 kb/s\n",
      "  Stream #0:0: Video: rawvideo (I420 / 0x30323449), yuv420p, 3840x2160, 4976640 kb/s, 50 tbr, 50 tbn\n",
      "Stream mapping:\n",
      "  Stream #0:0 -> #0:0 (rawvideo (native) -> vp9 (libvpx-vp9))\n",
      "Press [q] to stop, [?] for help\n",
      "[libvpx-vp9 @ 0x56153fc562c0] v1.8.2\n",
      "Output #0, webm, to 'test_vids/encoded/waterfall/waterfallVP9_cf20.webm':\n",
      "  Metadata:\n",
      "    encoder         : Lavf59.22.100\n",
      "  Stream #0:0: Video: vp9, yuv420p(progressive), 3840x2160, q=2-31, 50 fps, 1k tbn\n",
      "    Metadata:\n",
      "      encoder         : Lavc59.26.100 libvpx-vp9\n",
      "    Side data:\n",
      "      cpb: bitrate max/min/avg: 0/0/0 buffer size: 0 vbv_delay: N/A\n",
      "frame=  200 fps=0.7 q=20.0 Lsize=  111192kB time=00:00:03.98 bitrate=228807.3kbits/s speed=0.014x    \n",
      "video:111189kB audio:0kB subtitle:0kB other streams:0kB global headers:0kB muxing overhead: 0.002089%\n",
      "ffmpeg version N-106635-g83e1a1de88 Copyright (c) 2000-2022 the FFmpeg developers\n",
      "  built with gcc 9 (Ubuntu 9.4.0-1ubuntu1~20.04.1)\n",
      "  configuration: --prefix=/home/ubuntu/ffmpeg_build --pkg-config-flags=--static --extra-cflags=-I/home/ubuntu/ffmpeg_build/include --extra-ldflags=-L/home/ubuntu/ffmpeg_build/lib --extra-libs='-lpthread -lm' --ld=g++ --bindir=/home/ubuntu/bin --enable-gpl --enable-gnutls --enable-libaom --enable-libass --enable-libfdk-aac --enable-libfreetype --enable-libmp3lame --enable-libopus --enable-libsvtav1 --enable-libdav1d --enable-libvorbis --enable-libvpx --enable-libx264 --enable-libx265 --enable-libvmaf --enable-version3 --enable-nonfree\n",
      "  libavutil      57. 24.101 / 57. 24.101\n",
      "  libavcodec     59. 26.100 / 59. 26.100\n",
      "  libavformat    59. 22.100 / 59. 22.100\n",
      "  libavdevice    59.  6.100 / 59.  6.100\n",
      "  libavfilter     8. 33.100 /  8. 33.100\n",
      "  libswscale      6.  6.100 /  6.  6.100\n",
      "  libswresample   4.  6.100 /  4.  6.100\n",
      "  libpostproc    56.  5.100 / 56.  5.100\n",
      "[rawvideo @ 0x5602c4990500] Estimating duration from bitrate, this may be inaccurate\n",
      "Input #0, rawvideo, from 'test_vids/refs/waterfall.yuv':\n",
      "  Duration: 00:00:04.00, start: 0.000000, bitrate: 4976640 kb/s\n",
      "  Stream #0:0: Video: rawvideo (I420 / 0x30323449), yuv420p, 3840x2160, 4976640 kb/s, 50 tbr, 50 tbn\n",
      "Stream mapping:\n",
      "  Stream #0:0 -> #0:0 (rawvideo (native) -> vp9 (libvpx-vp9))\n",
      "Press [q] to stop, [?] for help\n",
      "[libvpx-vp9 @ 0x5602c499d2c0] v1.8.2\n",
      "Output #0, webm, to 'test_vids/encoded/waterfall/waterfallVP9_cf25.webm':\n",
      "  Metadata:\n",
      "    encoder         : Lavf59.22.100\n",
      "  Stream #0:0: Video: vp9, yuv420p(progressive), 3840x2160, q=2-31, 50 fps, 1k tbn\n",
      "    Metadata:\n",
      "      encoder         : Lavc59.26.100 libvpx-vp9\n",
      "    Side data:\n",
      "      cpb: bitrate max/min/avg: 0/0/0 buffer size: 0 vbv_delay: N/A\n",
      "frame=  200 fps=0.8 q=25.0 Lsize=   89454kB time=00:00:03.98 bitrate=184076.2kbits/s speed=0.0155x    \n",
      "video:89452kB audio:0kB subtitle:0kB other streams:0kB global headers:0kB muxing overhead: 0.002555%\n",
      "ffmpeg version N-106635-g83e1a1de88 Copyright (c) 2000-2022 the FFmpeg developers\n",
      "  built with gcc 9 (Ubuntu 9.4.0-1ubuntu1~20.04.1)\n",
      "  configuration: --prefix=/home/ubuntu/ffmpeg_build --pkg-config-flags=--static --extra-cflags=-I/home/ubuntu/ffmpeg_build/include --extra-ldflags=-L/home/ubuntu/ffmpeg_build/lib --extra-libs='-lpthread -lm' --ld=g++ --bindir=/home/ubuntu/bin --enable-gpl --enable-gnutls --enable-libaom --enable-libass --enable-libfdk-aac --enable-libfreetype --enable-libmp3lame --enable-libopus --enable-libsvtav1 --enable-libdav1d --enable-libvorbis --enable-libvpx --enable-libx264 --enable-libx265 --enable-libvmaf --enable-version3 --enable-nonfree\n",
      "  libavutil      57. 24.101 / 57. 24.101\n",
      "  libavcodec     59. 26.100 / 59. 26.100\n",
      "  libavformat    59. 22.100 / 59. 22.100\n",
      "  libavdevice    59.  6.100 / 59.  6.100\n",
      "  libavfilter     8. 33.100 /  8. 33.100\n",
      "  libswscale      6.  6.100 /  6.  6.100\n",
      "  libswresample   4.  6.100 /  4.  6.100\n",
      "  libpostproc    56.  5.100 / 56.  5.100\n",
      "[rawvideo @ 0x55e2bb680500] Estimating duration from bitrate, this may be inaccurate\n",
      "Input #0, rawvideo, from 'test_vids/refs/waterfall.yuv':\n",
      "  Duration: 00:00:04.00, start: 0.000000, bitrate: 4976640 kb/s\n",
      "  Stream #0:0: Video: rawvideo (I420 / 0x30323449), yuv420p, 3840x2160, 4976640 kb/s, 50 tbr, 50 tbn\n",
      "Stream mapping:\n",
      "  Stream #0:0 -> #0:0 (rawvideo (native) -> vp9 (libvpx-vp9))\n",
      "Press [q] to stop, [?] for help\n",
      "[libvpx-vp9 @ 0x55e2bb68d2c0] v1.8.2\n",
      "Output #0, webm, to 'test_vids/encoded/waterfall/waterfallVP9_cf30.webm':\n",
      "  Metadata:\n",
      "    encoder         : Lavf59.22.100\n",
      "  Stream #0:0: Video: vp9, yuv420p(progressive), 3840x2160, q=2-31, 50 fps, 1k tbn\n",
      "    Metadata:\n",
      "      encoder         : Lavc59.26.100 libvpx-vp9\n",
      "    Side data:\n",
      "      cpb: bitrate max/min/avg: 0/0/0 buffer size: 0 vbv_delay: N/A\n",
      "frame=  200 fps=0.9 q=30.0 Lsize=   68018kB time=00:00:03.98 bitrate=139964.7kbits/s speed=0.0171x    \n",
      "video:68015kB audio:0kB subtitle:0kB other streams:0kB global headers:0kB muxing overhead: 0.003292%\n",
      "ffmpeg version N-106635-g83e1a1de88 Copyright (c) 2000-2022 the FFmpeg developers\n",
      "  built with gcc 9 (Ubuntu 9.4.0-1ubuntu1~20.04.1)\n",
      "  configuration: --prefix=/home/ubuntu/ffmpeg_build --pkg-config-flags=--static --extra-cflags=-I/home/ubuntu/ffmpeg_build/include --extra-ldflags=-L/home/ubuntu/ffmpeg_build/lib --extra-libs='-lpthread -lm' --ld=g++ --bindir=/home/ubuntu/bin --enable-gpl --enable-gnutls --enable-libaom --enable-libass --enable-libfdk-aac --enable-libfreetype --enable-libmp3lame --enable-libopus --enable-libsvtav1 --enable-libdav1d --enable-libvorbis --enable-libvpx --enable-libx264 --enable-libx265 --enable-libvmaf --enable-version3 --enable-nonfree\n",
      "  libavutil      57. 24.101 / 57. 24.101\n",
      "  libavcodec     59. 26.100 / 59. 26.100\n",
      "  libavformat    59. 22.100 / 59. 22.100\n",
      "  libavdevice    59.  6.100 / 59.  6.100\n",
      "  libavfilter     8. 33.100 /  8. 33.100\n",
      "  libswscale      6.  6.100 /  6.  6.100\n",
      "  libswresample   4.  6.100 /  4.  6.100\n",
      "  libpostproc    56.  5.100 / 56.  5.100\n",
      "[rawvideo @ 0x55f85b66f500] Estimating duration from bitrate, this may be inaccurate\n",
      "Input #0, rawvideo, from 'test_vids/refs/waterfall.yuv':\n",
      "  Duration: 00:00:04.00, start: 0.000000, bitrate: 4976640 kb/s\n",
      "  Stream #0:0: Video: rawvideo (I420 / 0x30323449), yuv420p, 3840x2160, 4976640 kb/s, 50 tbr, 50 tbn\n",
      "Stream mapping:\n",
      "  Stream #0:0 -> #0:0 (rawvideo (native) -> vp9 (libvpx-vp9))\n",
      "Press [q] to stop, [?] for help\n",
      "[libvpx-vp9 @ 0x55f85b67c2c0] v1.8.2\n"
     ]
    },
    {
     "name": "stderr",
     "output_type": "stream",
     "text": [
      "Output #0, webm, to 'test_vids/encoded/waterfall/waterfallVP9_cf35.webm':\n",
      "  Metadata:\n",
      "    encoder         : Lavf59.22.100\n",
      "  Stream #0:0: Video: vp9, yuv420p(progressive), 3840x2160, q=2-31, 50 fps, 1k tbn\n",
      "    Metadata:\n",
      "      encoder         : Lavc59.26.100 libvpx-vp9\n",
      "    Side data:\n",
      "      cpb: bitrate max/min/avg: 0/0/0 buffer size: 0 vbv_delay: N/A\n",
      "frame=  200 fps=0.9 q=35.0 Lsize=   49039kB time=00:00:03.98 bitrate=100910.5kbits/s speed=0.0179x    \n",
      "video:49036kB audio:0kB subtitle:0kB other streams:0kB global headers:0kB muxing overhead: 0.004473%\n"
     ]
    }
   ],
   "source": [
    "import os\n",
    "import subprocess\n",
    "source = \"waterfall\"\n",
    "path = \"test_vids/refs/\" + source + \".yuv\"\n",
    "res_width = 3840\n",
    "res_height = 2160\n",
    "quality = [15, 20, 25, 30, 35]\n",
    "for current_crf in range(0,5):\n",
    "    out = \"test_vids/encoded/\" + source + \"/\" + source + \"VP9_cf\" + str(quality[current_crf]) + \".webm\"\n",
    "    to_avc = f\"ffmpeg -f rawvideo -video_size {res_width}x{res_height} \\\n",
    "    -r 50 -pixel_format yuv420p -i {path} -c:v libvpx-vp9 -crf {quality[current_crf]} -b:v 0 {out}\"\n",
    "    subprocess.call(to_avc, shell=True)"
   ]
  },
  {
   "cell_type": "code",
   "execution_count": null,
   "id": "fe3278ab",
   "metadata": {},
   "outputs": [],
   "source": []
  },
  {
   "cell_type": "code",
   "execution_count": null,
   "id": "8847fdc5",
   "metadata": {},
   "outputs": [],
   "source": []
  }
 ],
 "metadata": {
  "kernelspec": {
   "display_name": "Python 3 (ipykernel)",
   "language": "python",
   "name": "python3"
  },
  "language_info": {
   "codemirror_mode": {
    "name": "ipython",
    "version": 3
   },
   "file_extension": ".py",
   "mimetype": "text/x-python",
   "name": "python",
   "nbconvert_exporter": "python",
   "pygments_lexer": "ipython3",
   "version": "3.8.10"
  }
 },
 "nbformat": 4,
 "nbformat_minor": 5
}
